# xmcd
# 
# Track frame offsets:
#     150
#     13158
#     34475
#     53888
#     75793
#     98152
#     117791
#     139040
#     161478
# 
# Disc length: 2498
# 
# Revision: 0
# Processed by: cddbd v1.5.2PL0 Copyright (c) Steve Scherf et al.
# Submitted via: BonkEnc v1.0.6
# 
DISCID=6809c009
DTITLE=鬼束ちひろ - Sugar High(通常盤)
DYEAR=2002
DGENRE=JPop
TTITLE0=ＮＯＴ　ＹＯＵＲ　ＧＯＤ
TTITLE1=声
TTITLE2=Ｒｅｂｅｌ　Ｌｕｃｋ
TTITLE3=Ｔｉｇｅｒ　ｉｎ　ｍｙ　Ｌｏｖｅ
TTITLE4=Ｃａｓｔｌｅ　ｉｍｉｔａｔｉｏｎ（ａｌｂｕｍ　Ｖｅｒ）
TTITLE5=漂流の羽
TTITLE6=砂の盾
TTITLE7=Ｋｉｎｇ　Ｏｆ　Ｓｏｌｉｔｕｄｅ
TTITLE8=ＢＯＲＤＥＲＬＩＮＥ
EXTD=YEAR: 2002
EXTT0=
EXTT1=
EXTT2=
EXTT3=
EXTT4=
EXTT5=
EXTT6=
EXTT7=
EXTT8=
PLAYORDER=
